<?xml version="1.0" standalone="no"?>
<!DOCTYPE svg PUBLIC "-//W3C//DTD SVG 20010904//EN"
 "http://www.w3.org/TR/2001/REC-SVG-20010904/DTD/svg10.dtd">
<svg version="1.0" xmlns="http://www.w3.org/2000/svg"
 width="1440.000000pt" height="1440.000000pt" viewBox="0 0 1440.000000 1440.000000"
 preserveAspectRatio="xMidYMid meet">

<g transform="translate(0.000000,1440.000000) scale(0.100000,-0.100000)"
fill="#000000" stroke="none">
<path d="M0 12465 c0 -1713 2 -1935 15 -1935 8 0 15 6 15 14 0 10 10 13 35 10
19 -1 39 -6 44 -9 5 -3 12 -1 16 5 3 5 -1 10 -10 10 -13 0 -15 6 -10 30 5 23
3 30 -9 30 -9 0 -16 -4 -16 -10 0 -5 -4 -10 -10 -10 -19 0 -10 32 10 37 16 4
19 12 16 45 -2 22 -8 44 -15 51 -19 19 -12 36 22 53 17 10 37 24 44 33 11 14
12 13 13 -6 0 -16 6 -23 20 -23 11 0 20 -7 20 -16 0 -11 -6 -14 -20 -9 -14 4
-20 2 -20 -8 0 -10 7 -13 20 -10 14 4 20 0 20 -11 0 -9 5 -16 11 -16 6 0 9 9
6 20 -3 12 1 24 11 29 14 8 12 12 -17 24 -18 8 -29 17 -23 21 6 3 13 2 17 -4
3 -5 13 -10 21 -10 16 0 19 33 4 60 -8 15 -6 20 10 25 22 7 26 25 9 42 -7 7
-2 20 17 42 l27 33 -30 28 c-22 21 -33 26 -42 17 -21 -21 -23 2 -2 24 25 27
26 42 6 59 -11 9 -12 16 -5 25 6 7 8 20 4 29 -3 9 -2 16 3 16 17 0 14 70 -3
77 -13 5 -13 7 2 17 9 7 15 19 14 27 -6 39 0 46 33 41 17 -3 35 -10 39 -16 11
-16 9 6 -1 23 -6 9 -4 19 5 28 15 16 9 62 -10 76 -8 6 -7 10 1 14 7 2 13 16
13 31 0 20 3 23 12 14 18 -18 25 -15 32 14 9 34 -7 52 -29 34 -13 -11 -15 -7
-15 35 0 44 2 47 23 42 12 -2 30 -8 40 -12 15 -6 18 -4 17 11 -3 30 -1 40 8
28 4 -6 26 -9 50 -6 42 4 42 4 22 22 -24 21 -26 36 -4 44 23 9 34 7 34 -4 0
-5 -7 -10 -15 -10 -8 0 -15 -4 -15 -10 0 -5 9 -10 20 -10 16 0 20 7 20 33 0
25 6 37 23 45 l22 11 -22 7 c-13 3 -23 13 -23 21 0 12 9 14 39 10 21 -2 45 -1
52 4 9 6 -1 9 -31 9 -33 0 -41 3 -30 10 8 5 30 10 48 10 17 0 32 5 32 10 0 6
-15 10 -32 10 -18 0 -40 5 -48 10 -11 7 -1 10 35 11 l50 2 -40 7 c-22 4 -32 8
-22 9 21 1 23 21 2 21 -8 0 -15 5 -15 10 0 6 7 10 15 10 8 0 15 5 15 10 0 6
-7 10 -15 10 -8 0 -15 9 -15 20 0 11 5 20 11 20 8 0 7 5 -2 16 -10 13 -10 17
2 25 11 7 9 9 -8 9 -20 0 -23 -5 -23 -40 0 -22 -4 -40 -10 -40 -18 0 -11 76 8
93 10 10 22 14 25 11 4 -4 13 -1 22 6 10 8 15 9 15 1 0 -6 11 -8 30 -4 17 3
30 1 30 -4 0 -15 -23 -33 -42 -33 -10 0 -18 -7 -18 -15 0 -19 29 -20 36 -1 3
8 13 12 26 8 18 -4 20 -2 15 18 -4 16 0 28 11 36 15 12 14 13 -12 14 -20 0
-27 4 -23 14 7 17 -16 28 -38 20 -8 -4 -15 -12 -15 -20 0 -8 -9 -14 -19 -14
-20 0 -39 49 -26 70 8 13 35 13 35 0 0 -5 -7 -10 -15 -10 -8 0 -15 -4 -15 -10
0 -13 27 -13 36 1 3 6 17 9 30 6 30 -5 32 9 3 16 -15 4 -20 11 -15 23 5 14 2
16 -24 11 -17 -4 -30 -2 -30 3 0 17 77 12 84 -5 7 -18 29 -19 56 -3 16 10 24
10 40 0 15 -9 26 -10 38 -3 14 9 13 10 -9 11 -19 0 -28 7 -33 23 -5 18 -8 20
-16 7 -8 -11 -9 -5 -4 23 7 39 -4 48 -26 22 -7 -8 -21 -15 -31 -15 -11 0 -19
-7 -19 -15 0 -11 -11 -15 -40 -15 -29 0 -40 4 -40 15 0 11 11 15 40 15 22 0
40 4 40 9 0 5 11 12 25 15 14 4 25 11 25 16 0 15 -27 12 -44 -5 -8 -8 -19 -15
-24 -15 -16 0 -2 38 16 44 25 9 64 33 61 37 -1 2 1 15 6 28 4 13 2 28 -4 34
-8 8 -13 2 -17 -21 -8 -39 -18 -47 -33 -28 -10 11 -7 22 11 49 20 31 24 33 43
22 11 -8 32 -11 48 -8 24 5 27 10 27 44 0 24 -5 39 -12 40 -7 0 -3 5 10 11 23
12 28 28 12 44 -15 15 9 81 32 88 11 2 17 9 13 16 -4 7 6 8 34 4 46 -7 54 1
15 16 -21 8 -24 13 -15 24 7 8 10 25 8 38 -2 12 -2 17 0 9 4 -11 7 -11 13 -1
6 9 13 7 29 -9 27 -27 41 -27 40 2 0 12 -3 16 -6 10 -7 -20 -19 -15 -31 12
-23 51 -17 58 41 52 29 -3 41 -2 27 2 l-25 7 25 15 c14 8 25 21 25 29 0 8 15
18 38 23 20 5 37 12 37 15 -1 27 -46 52 -97 53 -48 1 -34 6 40 14 l58 7 -15
23 c-22 33 -20 55 4 55 11 0 20 -6 20 -14 0 -25 17 -27 41 -6 13 11 19 19 14
20 -6 0 -16 -5 -22 -11 -7 -7 -12 -6 -17 6 -3 9 -2 13 3 10 19 -11 23 17 5 30
-18 13 -18 14 3 34 12 12 28 21 36 21 7 0 20 11 27 25 12 22 11 27 -6 40 -16
12 -16 14 -3 15 9 0 22 -7 29 -15 9 -11 16 -12 31 -2 17 10 23 9 34 -6 9 -13
15 -15 21 -6 5 9 11 7 21 -7 12 -16 15 -17 23 -4 15 23 6 35 -23 32 -21 -3
-26 0 -21 12 3 9 1 16 -5 16 -6 0 -11 -4 -11 -10 0 -5 -18 -10 -40 -10 -37 0
-40 2 -40 26 0 26 1 26 50 22 53 -5 69 7 23 18 -45 10 -50 12 -20 13 28 1 37
23 16 37 -16 9 29 33 53 29 10 -2 16 0 13 5 -3 5 -16 7 -29 4 -18 -3 -26 1
-31 17 -4 11 -4 23 -1 26 3 4 6 -2 6 -11 0 -14 5 -17 23 -12 12 3 30 6 40 6
10 0 17 8 17 19 0 11 6 22 13 24 7 3 5 6 -5 6 -10 1 -22 -8 -28 -20 -9 -16
-14 -18 -26 -8 -21 17 -17 29 11 29 23 0 25 3 26 53 0 28 3 46 6 40 6 -16 43
-17 43 -2 0 6 -9 13 -20 16 -11 3 -20 9 -20 13 0 5 -3 17 -6 27 -5 14 -4 15 4
3 9 -12 13 -12 30 3 10 9 33 17 50 17 17 0 34 5 37 10 3 6 15 10 26 10 10 0
19 7 19 15 0 19 -19 19 -58 -1 -18 -8 -36 -12 -42 -9 -11 7 55 45 77 45 11 0
11 5 0 28 -8 15 -18 37 -22 50 -6 21 -4 22 19 16 26 -6 38 10 14 19 -9 3 -4
11 12 25 18 15 28 17 38 10 9 -8 16 -8 24 0 6 6 18 8 27 6 9 -3 6 1 -7 8 -35
22 -9 38 52 32 l51 -5 -30 17 c-17 10 -25 19 -18 21 8 3 13 24 14 51 l1 47 9
-35 c4 -19 6 -41 4 -48 -3 -8 1 -12 11 -10 9 2 26 22 39 46 13 24 32 50 42 57
16 13 12 14 -39 15 -34 0 -58 4 -58 10 0 7 20 10 50 9 28 -2 56 3 62 9 7 7 23
12 37 13 15 0 21 3 14 5 -7 3 -10 11 -7 19 4 10 0 12 -15 8 -13 -3 -21 -1 -21
7 0 11 12 11 60 -1 10 -3 15 3 15 16 0 16 -6 19 -27 17 -14 -1 -29 1 -31 5 -3
5 6 9 20 10 36 2 50 27 18 31 -26 3 -34 20 -12 26 6 2 31 9 55 15 36 10 41 15
32 26 -7 8 -10 21 -7 29 4 11 1 13 -11 9 -15 -6 -15 -5 -3 10 12 15 10 17 -16
17 -16 0 -34 -5 -41 -12 -9 -9 -12 -9 -12 0 0 9 -211 12 -920 12 l-920 0 0
-1935z m1868 1887 c2 -7 -3 -12 -12 -12 -9 0 -16 7 -16 16 0 17 22 14 28 -4z
m52 -22 c0 -5 -7 -10 -16 -10 -8 0 -12 5 -9 10 3 6 10 10 16 10 5 0 9 -4 9
-10z m-120 -104 c0 -3 -4 -8 -10 -11 -5 -3 -10 -1 -10 4 0 6 5 11 10 11 6 0
10 -2 10 -4z m-3 -62 c-3 -3 -12 -4 -19 -1 -8 3 -5 6 6 6 11 1 17 -2 13 -5z
m-237 -84 c18 -12 2 -12 -25 0 -13 6 -15 9 -5 9 8 0 22 -4 30 -9z m55 -88 c-3
-3 -11 0 -18 7 -9 10 -8 11 6 5 10 -3 15 -9 12 -12z m-68 -38 c-3 -3 -12 -4
-19 -1 -8 3 -5 6 6 6 11 1 17 -2 13 -5z m-300 -520 c-3 -3 -12 -4 -19 -1 -8 3
-5 6 6 6 11 1 17 -2 13 -5z m-117 -219 c0 -5 -5 -3 -10 5 -5 8 -10 20 -10 25
0 6 5 3 10 -5 5 -8 10 -19 10 -25z m-90 -225 c0 -5 -4 -10 -10 -10 -5 0 -10 5
-10 10 0 6 5 10 10 10 6 0 10 -4 10 -10z m-3 -26 c-3 -3 -12 -4 -19 -1 -8 3
-5 6 6 6 11 1 17 -2 13 -5z m-69 -23 c12 -7 12 -12 1 -30 -11 -16 -24 -21 -54
-21 -29 0 -36 3 -25 10 8 5 27 10 43 10 15 0 27 5 27 10 0 6 -7 10 -15 10 -8
0 -15 5 -15 10 0 12 20 13 38 1z m-148 -41 c0 -5 -4 -10 -10 -10 -5 0 -10 5
-10 10 0 6 5 10 10 10 6 0 10 -4 10 -10z m70 -40 c0 -11 -2 -20 -4 -20 -2 0
-6 9 -9 20 -3 11 -1 20 4 20 5 0 9 -9 9 -20z m-157 -160 c-8 -30 -21 -34 -15
-5 2 14 8 25 12 25 5 0 6 -9 3 -20z m7 -180 c0 -22 -4 -40 -10 -40 -5 0 -10
14 -10 30 0 17 -4 30 -10 30 -5 0 -10 5 -10 10 0 6 9 10 20 10 17 0 20 -7 20
-40z m-229 -325 c-1 -15 -24 -12 -29 3 -3 9 2 13 12 10 10 -1 17 -7 17 -13z
m29 -39 c0 -3 -4 -8 -10 -11 -5 -3 -10 -1 -10 4 0 6 5 11 10 11 6 0 10 -2 10
-4z m-80 -164 c0 -13 -12 -22 -22 -16 -10 6 -1 24 13 24 5 0 9 -4 9 -8z m24
-71 c4 -5 -4 -7 -16 -4 -21 4 -22 3 -5 -10 25 -20 21 -30 -9 -23 -15 4 -32 2
-40 -5 -11 -9 -14 -7 -14 14 0 25 4 28 67 36 6 0 14 -3 17 -8z m-212 -53 c-9
-9 -12 -7 -12 12 0 19 3 21 12 12 9 -9 9 -15 0 -24z m45 0 c-3 -8 -6 -5 -6 6
-1 11 2 17 5 13 3 -3 4 -12 1 -19z m161 -25 c-10 -2 -26 -2 -35 0 -10 3 -2 5
17 5 19 0 27 -2 18 -5z m-278 -667 c0 -3 -4 -8 -10 -11 -5 -3 -10 -1 -10 4 0
6 5 11 10 11 6 0 10 -2 10 -4z m21 -56 c5 0 9 -4 9 -10 0 -5 -7 -10 -15 -10
-8 0 -15 -7 -15 -16 0 -17 -22 -14 -28 4 -2 7 3 12 12 12 16 0 22 15 9 23 -5
2 -2 2 5 0 8 -1 18 -3 23 -3z m-91 -100 c0 -5 -5 -10 -11 -10 -5 0 -7 5 -4 10
3 6 8 10 11 10 2 0 4 -4 4 -10z m120 -21 c0 -5 -4 -9 -10 -9 -5 0 -10 7 -10
16 0 8 5 12 10 9 6 -3 10 -10 10 -16z m-120 -19 c0 -5 -2 -10 -4 -10 -3 0 -8
5 -11 10 -3 6 -1 10 4 10 6 0 11 -4 11 -10z m110 -76 c0 -8 -4 -12 -10 -9 -5
3 -10 10 -10 16 0 5 5 9 10 9 6 0 10 -7 10 -16z m-80 -23 c0 -13 -28 -21 -47
-13 -14 5 -12 8 12 13 17 4 31 7 33 8 1 0 2 -3 2 -8z m30 -31 c0 -5 -7 -10
-15 -10 -8 0 -15 5 -15 10 0 6 7 10 15 10 8 0 15 -4 15 -10z"/>
<path d="M12615 14374 c25 -27 29 -36 26 -64 -1 -8 9 -20 21 -25 12 -6 25 -21
28 -35 4 -14 21 -40 39 -59 17 -18 31 -39 31 -46 0 -7 6 -15 14 -18 7 -3 16
-19 19 -35 3 -17 18 -42 32 -56 14 -14 23 -30 20 -36 -3 -5 4 -14 15 -20 11
-6 20 -16 20 -22 0 -6 9 -20 20 -32 47 -48 70 -80 70 -96 0 -20 27 -77 41 -85
5 -4 9 -13 9 -22 0 -9 11 -31 25 -49 14 -18 25 -37 25 -42 0 -5 13 -25 30 -43
16 -19 30 -38 30 -44 0 -16 42 -94 83 -155 20 -30 40 -71 43 -90 4 -19 18 -46
31 -60 13 -14 21 -31 19 -37 -3 -7 1 -16 9 -20 12 -7 26 -32 86 -157 38 -77
43 -86 52 -86 8 0 28 -43 34 -75 2 -10 10 -30 18 -42 12 -17 12 -23 3 -23 -7
0 -2 -7 10 -16 12 -8 22 -26 22 -40 0 -15 6 -24 15 -24 11 0 15 -11 15 -36 0
-28 5 -37 21 -41 13 -4 18 -11 14 -21 -3 -8 -1 -20 3 -26 10 -12 26 -66 24
-78 -1 -3 5 -12 13 -18 8 -7 15 -23 15 -37 0 -13 6 -26 14 -29 8 -3 12 -12 9
-20 -3 -8 4 -25 16 -38 13 -14 19 -29 15 -39 -3 -10 -2 -17 3 -17 12 0 37 -78
34 -106 -1 -12 5 -28 13 -37 9 -9 16 -20 16 -25 0 -5 7 -15 15 -22 8 -7 15
-21 15 -31 0 -9 6 -24 13 -31 8 -7 12 -19 9 -27 -3 -8 0 -11 6 -7 5 3 13 -9
17 -30 8 -46 18 -36 22 23 1 25 6 49 11 52 14 9 30 86 25 118 -4 25 -3 26 8 9
10 -16 11 -1321 5 -6113 l-6 -6093 240 0 240 0 0 7200 0 7200 -905 0 -904 0
24 -26z"/>
<path d="M1860 14120 c0 -5 5 -10 10 -10 6 0 10 5 10 10 0 6 -4 10 -10 10 -5
0 -10 -4 -10 -10z"/>
<path d="M1810 14110 c0 -5 7 -10 15 -10 8 0 15 5 15 10 0 6 -7 10 -15 10 -8
0 -15 -4 -15 -10z"/>
<path d="M1820 14050 c0 -5 5 -10 10 -10 6 0 10 5 10 10 0 6 -4 10 -10 10 -5
0 -10 -4 -10 -10z"/>
<path d="M1746 14002 c-3 -5 8 -9 25 -10 16 0 27 4 24 9 -8 11 -42 12 -49 1z"/>
<path d="M1600 13940 c0 -5 4 -10 9 -10 6 0 13 5 16 10 3 6 -1 10 -9 10 -9 0
-16 -4 -16 -10z"/>
<path d="M1530 13861 c7 -14 6 -21 -3 -24 -6 -3 -2 -6 11 -6 12 -1 22 3 22 8
0 5 3 16 6 25 5 12 0 16 -20 16 -23 0 -25 -3 -16 -19z"/>
<path d="M1585 13820 c3 -5 11 -10 16 -10 6 0 7 5 4 10 -3 6 -11 10 -16 10 -6
0 -7 -4 -4 -10z"/>
<path d="M1520 13800 c0 -5 7 -10 15 -10 8 0 15 5 15 10 0 6 -7 10 -15 10 -8
0 -15 -4 -15 -10z"/>
<path d="M1609 13758 c-11 -8 -10 -9 4 -4 11 3 20 0 23 -9 4 -8 15 -15 25 -15
20 0 26 -15 9 -25 -12 -7 -4 -25 11 -25 6 0 7 5 3 11 -3 6 0 15 7 20 11 7 9
12 -11 26 -37 27 -55 32 -71 21z"/>
<path d="M1417 13654 c-8 -8 1 -24 14 -24 5 0 9 7 9 15 0 15 -12 20 -23 9z"/>
<path d="M1495 13600 c-3 -5 1 -10 9 -10 9 0 16 5 16 10 0 6 -4 10 -9 10 -6 0
-13 -4 -16 -10z"/>
<path d="M1615 13590 c-3 -5 3 -10 15 -10 12 0 18 5 15 10 -3 6 -10 10 -15 10
-5 0 -12 -4 -15 -10z"/>
<path d="M1665 13590 c-3 -5 -1 -10 4 -10 6 0 11 5 11 10 0 6 -2 10 -4 10 -3
0 -8 -4 -11 -10z"/>
<path d="M1373 13583 c-18 -7 -16 -40 2 -47 22 -8 45 4 45 24 0 14 -23 34 -33
29 -1 0 -8 -3 -14 -6z"/>
<path d="M1600 13550 c0 -5 4 -10 9 -10 6 0 13 5 16 10 3 6 -1 10 -9 10 -9 0
-16 -4 -16 -10z"/>
<path d="M1588 13513 c7 -3 16 -2 19 1 4 3 -2 6 -13 5 -11 0 -14 -3 -6 -6z"/>
<path d="M1394 13439 c-10 -16 19 -20 34 -6 14 15 13 16 -7 14 -12 -1 -25 -5
-27 -8z"/>
<path d="M1470 13419 c0 -24 23 -21 28 4 2 10 -3 17 -12 17 -10 0 -16 -9 -16
-21z"/>
<path d="M1280 13410 c0 -5 18 -10 40 -10 22 0 40 5 40 10 0 6 -18 10 -40 10
-22 0 -40 -4 -40 -10z"/>
<path d="M1432 13373 c2 -13 14 -19 38 -20 19 -1 26 1 15 4 -11 3 -24 11 -28
19 -11 20 -29 17 -25 -3z"/>
<path d="M1280 13366 c0 -8 60 -12 72 -4 8 4 -4 8 -29 8 -24 0 -43 -2 -43 -4z"/>
<path d="M1212 13229 c2 -6 8 -10 13 -10 5 0 11 4 13 10 2 6 -4 11 -13 11 -9
0 -15 -5 -13 -11z"/>
<path d="M1200 13189 c0 -5 5 -7 10 -4 6 3 10 8 10 11 0 2 -4 4 -10 4 -5 0
-10 -5 -10 -11z"/>
<path d="M1140 13176 c0 -8 14 -21 30 -30 21 -10 30 -11 30 -3 -1 34 -60 66
-60 33z"/>
<path d="M1230 13160 c0 -5 5 -10 11 -10 5 0 7 5 4 10 -3 6 -8 10 -11 10 -2 0
-4 -4 -4 -10z"/>
<path d="M1460 13160 c0 -5 5 -10 10 -10 6 0 10 5 10 10 0 6 -4 10 -10 10 -5
0 -10 -4 -10 -10z"/>
<path d="M1293 13153 c-19 -7 -16 -53 2 -53 8 0 15 -4 15 -10 0 -5 -7 -10 -15
-10 -22 0 -18 -17 6 -23 12 -3 18 -10 15 -15 -3 -5 6 -7 22 -4 23 5 24 6 7 12
-11 4 -20 16 -21 26 -1 10 -2 34 -3 52 -1 32 -5 35 -28 25z"/>
<path d="M1380 13109 c0 -5 5 -7 10 -4 6 3 10 8 10 11 0 2 -4 4 -10 4 -5 0
-10 -5 -10 -11z"/>
<path d="M1120 13031 c0 -10 8 -28 18 -40 21 -27 19 -121 -4 -121 -8 0 -14 -4
-14 -10 0 -13 37 -13 45 1 9 13 12 119 4 119 -3 0 -11 16 -19 35 -15 38 -30
46 -30 16z"/>
<path d="M1191 13004 c0 -11 3 -14 6 -6 3 7 2 16 -1 19 -3 4 -6 -2 -5 -13z"/>
<path d="M1105 12960 c4 -6 11 -8 16 -5 14 9 11 15 -7 15 -8 0 -12 -5 -9 -10z"/>
<path d="M1040 12920 c0 -5 7 -7 15 -4 8 4 15 8 15 10 0 2 -7 4 -15 4 -8 0
-15 -4 -15 -10z"/>
<path d="M1031 12884 c0 -11 3 -14 6 -6 3 7 2 16 -1 19 -3 4 -6 -2 -5 -13z"/>
<path d="M936 12862 c-3 -6 1 -13 10 -16 23 -9 28 -2 10 13 -8 7 -17 8 -20 3z"/>
<path d="M987 12820 c-17 -33 -16 -34 28 -44 l30 -8 -23 20 c-19 17 -20 21 -7
32 8 7 12 16 9 21 -10 16 -22 9 -37 -21z"/>
<path d="M1117 12811 c-4 -17 -2 -18 14 -8 22 14 25 27 5 27 -7 0 -16 -9 -19
-19z"/>
<path d="M1034 12809 c-3 -5 6 -9 20 -9 31 0 34 6 6 13 -11 3 -23 1 -26 -4z"/>
<path d="M1190 12810 c-9 -6 -10 -10 -3 -10 7 0 14 -19 16 -42 3 -41 4 -41 5
10 1 28 1 52 0 52 -2 0 -10 -5 -18 -10z"/>
<path d="M1057 12774 c-8 -8 1 -24 14 -24 5 0 9 7 9 15 0 15 -12 20 -23 9z"/>
<path d="M933 12763 c-19 -7 -16 -20 7 -26 15 -4 20 0 20 14 0 19 -5 21 -27
12z"/>
<path d="M990 12730 c0 -6 7 -10 15 -10 8 0 15 2 15 4 0 2 -7 6 -15 10 -8 3
-15 1 -15 -4z"/>
<path d="M880 12701 c0 -6 -7 -11 -15 -11 -8 0 -15 -4 -15 -10 0 -5 7 -10 15
-10 8 0 15 -5 15 -12 0 -6 3 -8 7 -4 10 10 11 46 1 52 -4 3 -8 0 -8 -5z"/>
<path d="M800 12653 c0 -5 7 -17 15 -27 11 -15 18 -17 27 -8 8 8 8 15 -2 27
-13 15 -40 21 -40 8z"/>
<path d="M910 12610 c0 -5 5 -10 10 -10 6 0 10 5 10 10 0 6 -4 10 -10 10 -5 0
-10 -4 -10 -10z"/>
<path d="M950 12591 c0 -11 4 -22 9 -25 4 -3 6 6 3 19 -5 30 -12 33 -12 6z"/>
<path d="M910 12538 c0 -5 11 -8 25 -8 14 0 25 3 25 8 0 4 -11 7 -25 7 -14 0
-25 -3 -25 -7z"/>
<path d="M758 12443 c7 -3 16 -2 19 1 4 3 -2 6 -13 5 -11 0 -14 -3 -6 -6z"/>
<path d="M728 12413 c7 -3 16 -2 19 1 4 3 -2 6 -13 5 -11 0 -14 -3 -6 -6z"/>
<path d="M770 12410 c19 -13 30 -13 30 0 0 6 -10 10 -22 10 -19 0 -20 -2 -8
-10z"/>
<path d="M871 12374 c0 -11 3 -14 6 -6 3 7 2 16 -1 19 -3 4 -6 -2 -5 -13z"/>
<path d="M818 12323 c7 -3 16 -2 19 1 4 3 -2 6 -13 5 -11 0 -14 -3 -6 -6z"/>
<path d="M780 12306 c0 -8 5 -18 10 -21 6 -3 10 3 10 14 0 12 -4 21 -10 21 -5
0 -10 -6 -10 -14z"/>
<path d="M706 12198 c-13 -8 -15 -13 -5 -24 9 -11 8 -14 -7 -15 -11 0 -14 -3
-6 -6 7 -3 24 6 38 20 18 18 21 26 11 30 -7 3 -21 1 -31 -5z"/>
<path d="M649 12013 c-5 -14 -8 -31 -5 -37 2 -6 5 -3 5 7 1 9 8 17 16 17 8 0
15 9 15 20 0 29 -19 25 -31 -7z"/>
<path d="M600 12021 c0 -11 26 -22 34 -14 3 3 3 10 0 14 -7 12 -34 11 -34 0z"/>
<path d="M610 11980 c0 -5 5 -10 10 -10 6 0 10 5 10 10 0 6 -4 10 -10 10 -5 0
-10 -4 -10 -10z"/>
<path d="M610 11940 c0 -5 5 -10 10 -10 6 0 10 5 10 10 0 6 -4 10 -10 10 -5 0
-10 -4 -10 -10z"/>
<path d="M8265 11878 c-77 -21 -165 -44 -195 -52 -98 -27 -213 -57 -285 -75
-68 -16 -70 -18 -68 -46 1 -17 5 -125 9 -241 l7 -210 -189 -121 c-104 -67
-207 -132 -229 -146 -50 -30 -408 -257 -492 -312 -35 -22 -89 -56 -120 -76
-131 -82 -625 -397 -718 -458 -55 -35 -175 -112 -266 -170 -148 -94 -283 -180
-786 -501 -297 -190 -608 -391 -773 -500 -96 -63 -224 -147 -285 -185 -60 -38
-198 -126 -305 -195 -107 -70 -267 -173 -355 -230 -88 -57 -210 -136 -270
-175 -186 -121 -336 -209 -405 -236 -40 -17 -66 -33 -69 -44 -1 -10 0 -46 4
-81 l7 -64 52 0 c98 0 176 12 176 27 0 11 75 13 468 12 551 -3 941 -14 954
-27 6 -6 10 -706 11 -1893 1 -1036 4 -1958 7 -2049 l6 -165 4 120 c2 66 4 179
5 250 2 171 13 265 30 265 7 0 15 10 19 22 3 15 22 31 55 46 l50 23 3 102 c2
56 1 -184 -1 -533 -2 -349 -4 -636 -6 -638 -5 -6 -150 51 -157 62 -4 6 -8 36
-9 66 l-2 55 -6 -50 c-4 -34 -16 -63 -36 -90 -42 -56 -135 -148 -142 -141 -4
3 -15 -1 -25 -11 -12 -11 -35 -16 -71 -16 -107 1 -103 -1 -185 95 -41 49 -61
146 -62 318 -1 85 -3 245 -4 355 -1 110 1 207 6 216 4 9 5 19 2 22 -3 3 -5 81
-4 174 2 253 5 327 13 341 5 7 3 12 -7 12 -9 0 -16 5 -16 10 0 6 3 10 8 10 4
0 6 123 5 272 -5 555 2 1371 11 1387 4 6 4 21 0 33 -3 12 -8 117 -9 234 -2
116 -7 220 -13 230 -5 11 -9 45 -9 76 0 31 -4 63 -10 70 -11 12 -13 19 -13 36
0 4 -25 23 -56 42 -55 33 -124 50 -124 30 0 -5 -9 -10 -20 -10 -11 0 -20 7
-20 15 0 17 -16 20 -25 5 -3 -5 -16 -10 -29 -10 -13 0 -38 -8 -56 -17 -28 -14
-31 -17 -16 -23 23 -8 -35 -26 -108 -34 -27 -4 -63 -13 -79 -21 -17 -8 -49
-15 -71 -15 -27 0 -36 -3 -28 -9 10 -6 7 -10 -13 -15 -16 -4 -33 -2 -41 5 -10
8 -14 8 -14 1 0 -20 -38 -34 -60 -22 -15 8 -20 8 -20 -3 0 -15 -112 -37 -189
-37 -29 0 -51 -5 -53 -12 -2 -6 -11 -8 -19 -4 -25 12 -56 31 -70 43 -15 12
-71 24 -108 23 -16 0 -21 4 -17 15 3 8 1 17 -4 20 -6 4 -10 2 -10 -4 0 -13
-63 13 -68 28 -2 6 -14 11 -27 11 -13 0 -30 7 -39 15 -8 8 -19 15 -25 15 -5 0
-32 12 -58 26 -39 21 -57 25 -96 20 -30 -3 -47 -1 -47 6 0 20 -101 1 -117 -22
-8 -11 -18 -18 -23 -15 -4 3 -38 -23 -75 -58 -72 -65 -285 -277 -285 -282 0
-2 -25 -27 -55 -57 -30 -29 -55 -58 -55 -64 0 -7 -7 -14 -15 -18 -8 -3 -14 -9
-13 -13 2 -4 -14 -24 -35 -44 -20 -20 -37 -43 -37 -51 0 -9 -11 -23 -25 -32
-14 -9 -23 -21 -19 -27 3 -6 -2 -9 -12 -7 -11 2 -18 -2 -17 -9 2 -7 -8 -20
-21 -29 -29 -18 -45 -72 -25 -85 8 -4 19 -3 28 4 12 10 13 7 9 -20 -3 -25 0
-33 14 -36 11 -3 21 -18 24 -36 10 -49 36 -40 32 10 -2 27 1 44 10 46 7 3 10
-1 6 -11 -3 -8 -1 -23 5 -33 10 -17 10 -17 11 2 0 15 3 16 12 7 17 -17 43 -15
59 4 10 13 10 17 -2 25 -11 7 -10 9 6 9 11 0 29 6 40 14 19 13 85 26 134 26
16 0 21 4 17 15 -5 14 6 20 28 16 6 -1 21 3 34 10 19 11 25 11 33 -1 6 -11 11
-12 17 -4 4 6 28 14 54 18 27 4 48 11 48 15 0 5 12 8 28 8 50 -1 84 19 59 35
-9 6 -7 12 7 23 24 18 67 19 85 3 11 -11 12 -9 6 10 -6 21 -4 23 13 18 14 -5
24 -1 31 11 6 11 11 13 11 5 0 -7 7 -21 17 -30 15 -16 16 -15 11 11 -5 27 6
39 15 15 3 -10 7 -10 20 1 15 12 17 11 17 -8 0 -21 1 -21 32 -5 30 16 31 18
13 25 -17 6 -17 8 -2 8 9 1 17 8 17 16 0 8 7 15 15 15 13 0 14 4 5 20 -10 18
-7 20 32 22 24 1 54 1 68 0 13 -1 27 2 30 6 11 16 110 51 110 39 1 -7 10 -1
20 12 l20 23 20 -23 c19 -23 20 -23 35 -5 8 10 12 23 9 27 -3 5 5 9 18 9 14 0
18 -3 11 -8 -17 -11 6 -81 27 -80 8 0 24 -3 34 -7 14 -6 17 -5 12 3 -4 7 -1
12 9 12 8 0 18 -7 21 -15 4 -8 12 -15 20 -15 8 0 23 -9 34 -20 l20 -20 -29 0
c-16 0 -32 6 -34 13 -3 7 -6 6 -6 -5 -1 -10 8 -18 22 -20 17 -2 24 -13 32 -43
5 -22 14 -44 20 -48 6 -5 2 -6 -8 -3 -10 3 -21 6 -23 6 -2 0 -4 18 -4 40 0 46
-11 52 -28 15 -17 -36 -16 -41 16 -72 27 -27 28 -32 27 -122 -1 -68 2 -94 12
-98 15 -6 18 -83 3 -83 -5 0 -10 -7 -10 -16 0 -8 5 -12 10 -9 6 3 10 -1 10
-10 0 -9 -4 -13 -10 -10 -10 6 -22 -30 -22 -67 0 -55 12 -122 23 -128 6 -5 13
-41 15 -86 3 -44 9 -95 14 -114 6 -19 10 -54 10 -77 0 -24 5 -43 10 -43 7 0 7
-7 0 -20 -6 -11 -8 -26 -4 -32 5 -7 9 -31 11 -53 5 -88 11 -118 24 -126 8 -5
9 -9 3 -9 -12 0 -12 -89 0 -109 4 -6 2 -19 -5 -27 -8 -9 -9 -18 -3 -22 14 -11
18 -85 3 -76 -8 4 -9 3 -5 -5 4 -6 11 -9 15 -6 11 6 19 -98 21 -245 1 -63 5
-119 9 -125 11 -13 10 -85 -1 -85 -4 0 -8 -22 -8 -50 0 -30 4 -50 11 -50 8 0
8 -4 0 -13 -7 -10 -7 -17 0 -24 6 -6 8 -17 3 -24 -4 -8 -7 -31 -5 -53 1 -22
-2 -42 -9 -46 -8 -5 -7 -9 4 -13 9 -4 16 -2 16 3 0 6 8 10 17 10 13 0 14 -3 5
-12 -17 -17 -15 -44 4 -63 9 -9 13 -19 9 -23 -4 -4 -10 -1 -12 6 -3 6 -12 12
-20 12 -14 0 -14 -2 1 -18 16 -19 17 -68 1 -119 -6 -19 -4 -23 16 -24 l24 0
-22 -11 c-28 -13 -29 -24 -6 -33 17 -6 17 -7 -1 -17 -15 -8 -16 -12 -5 -19 11
-7 10 -9 -3 -9 -10 0 -18 -7 -18 -15 0 -8 7 -15 15 -15 21 0 19 -27 -2 -34
-10 -3 -6 -4 9 -2 24 3 28 0 28 -21 0 -13 -5 -32 -12 -42 -9 -15 -9 -25 0 -46
17 -38 15 -55 -8 -55 -11 0 -20 -5 -20 -11 0 -6 9 -9 20 -6 15 4 20 0 20 -14
0 -10 -7 -19 -15 -19 -12 0 -13 -9 -8 -45 5 -38 3 -45 -11 -45 -9 0 -16 -4
-16 -10 0 -5 7 -10 15 -10 18 0 19 -20 4 -53 -8 -18 -8 -30 0 -46 9 -16 9 -26
0 -43 -14 -27 -22 -98 -11 -98 4 0 6 -18 4 -39 -3 -28 -9 -41 -23 -44 -14 -4
-19 -14 -19 -41 0 -20 -7 -48 -16 -61 -9 -13 -13 -28 -11 -32 9 -14 -14 -103
-25 -103 -7 0 -9 -19 -6 -50 3 -27 1 -50 -3 -50 -5 0 -9 5 -9 10 0 6 -5 10
-11 10 -7 0 -8 -14 -4 -40 4 -26 3 -40 -4 -40 -7 0 -9 -25 -7 -70 2 -39 -1
-73 -7 -77 -5 -3 -6 -23 -3 -46 5 -29 2 -44 -9 -57 -11 -12 -13 -20 -6 -25 15
-9 14 -21 -5 -40 -15 -15 -15 -17 2 -31 18 -14 18 -14 0 -28 -10 -8 -15 -19
-12 -24 3 -6 0 -13 -6 -15 -10 -4 -9 -8 2 -16 13 -10 13 -12 0 -22 -11 -8 -12
-12 -2 -16 18 -7 15 -40 -5 -53 -17 -9 -17 -11 1 -21 12 -8 15 -14 7 -18 -8
-6 -8 -16 1 -41 8 -26 8 -35 0 -38 -17 -5 5 -42 25 -42 14 0 14 -2 -2 -20 -16
-18 -16 -20 -2 -20 12 0 17 -9 17 -29 0 -37 24 -59 45 -41 10 9 15 9 15 1 0
-6 7 -11 16 -11 12 0 15 -6 10 -24 -3 -14 -2 -28 4 -31 5 -3 10 1 10 9 0 16
10 18 115 18 48 0 80 12 71 27 -3 4 16 13 42 20 54 14 172 72 172 83 0 4 7 8
15 8 8 0 19 9 25 20 6 11 22 23 35 26 14 3 22 10 20 15 -3 5 7 11 22 15 49 10
55 14 60 34 3 11 14 20 24 20 11 0 19 4 19 8 0 11 136 46 149 38 5 -4 12 -2
16 4 3 5 21 10 39 10 19 0 39 7 46 15 7 8 18 15 24 15 6 0 4 -5 -4 -10 -13 -8
-12 -11 5 -23 20 -15 37 -10 76 20 12 10 30 10 79 1 41 -7 65 -7 67 -1 2 5 17
7 34 5 22 -3 27 -7 18 -13 -10 -6 -8 -9 9 -9 15 0 22 6 22 20 0 16 7 20 33 22
50 2 55 3 63 11 12 11 36 8 53 -7 23 -21 73 -32 69 -16 -3 14 26 24 137 45 39
7 64 13 58 14 -26 2 -12 21 15 21 15 0 33 5 40 12 7 7 12 8 12 2 0 -5 5 -2 10
6 7 12 13 13 28 3 15 -9 24 -9 39 2 18 12 51 19 151 29 12 1 28 8 34 14 7 7
28 12 48 12 51 0 80 10 80 27 0 11 7 14 27 10 15 -3 48 1 74 7 27 7 52 9 57 4
5 -5 19 0 32 12 15 13 31 18 45 14 13 -3 26 -1 29 5 4 6 20 11 36 11 15 0 30
5 32 11 2 6 16 12 31 12 17 0 27 5 27 14 0 9 6 12 18 9 10 -4 45 3 78 15 32
11 68 21 79 22 11 0 25 7 30 15 6 7 26 15 45 18 65 7 105 16 117 26 6 5 20 8
30 7 10 -1 25 1 33 4 30 11 146 39 170 41 14 0 23 5 22 10 -4 10 17 26 33 26
6 0 3 -5 -5 -10 -12 -8 -12 -10 -1 -10 8 0 29 11 47 25 18 14 39 25 48 25 8 0
22 7 30 15 9 9 21 15 28 14 26 -3 37 2 69 33 26 24 42 31 69 30 19 -1 54 3 78
9 40 11 42 13 42 50 0 37 2 39 24 33 13 -3 27 -1 30 5 5 7 -5 11 -25 11 -25 0
-30 3 -22 11 9 9 9 16 0 31 -10 15 -9 21 3 28 13 8 13 10 -2 10 -9 0 -22 8
-27 17 -10 17 -10 17 -11 0 0 -11 -6 -17 -12 -14 -7 2 -12 11 -10 20 2 10 -4
15 -15 14 -11 0 -19 -10 -19 -25 -1 -13 -4 -25 -6 -28 -6 -6 -58 19 -58 29 0
4 -7 7 -16 7 -12 0 -14 -3 -6 -13 8 -9 1 -11 -33 -9 -24 2 -76 -2 -116 -8 -41
-7 -84 -13 -96 -15 -12 -2 -34 -6 -50 -9 -25 -5 -67 -10 -168 -21 -189 -21
-604 -27 -715 -11 -52 8 -88 14 -80 15 8 1 53 5 100 11 47 5 162 14 255 20
413 27 708 82 1428 264 185 47 444 106 575 131 130 25 260 50 287 55 87 17
325 48 465 61 187 18 630 15 900 -5 475 -35 542 -38 820 -33 244 4 318 9 519
36 129 18 241 30 250 28 9 -1 -15 -13 -54 -26 -38 -13 -74 -27 -80 -32 -5 -5
-25 -9 -45 -9 -23 0 -31 -3 -21 -9 9 -6 2 -10 -23 -13 -20 -2 -36 -1 -36 3 0
7 -145 1 -245 -11 -75 -9 -740 -6 -790 4 -45 9 -393 23 -450 19 -27 -2 -115
-8 -195 -13 -178 -11 -243 -18 -295 -32 -22 -6 -63 -12 -92 -14 -28 -1 -61 -7
-72 -13 -11 -6 -42 -11 -70 -11 -27 0 -53 -5 -56 -10 -3 -6 -19 -10 -36 -10
-16 0 -29 -4 -29 -10 0 -5 -15 -10 -32 -11 -18 0 -27 -3 -20 -6 22 -9 12 -22
-15 -19 -15 2 -39 -5 -53 -15 -14 -10 -44 -20 -67 -22 -24 -2 -46 -6 -50 -10
-7 -7 10 -11 41 -7 11 1 15 -3 12 -9 -4 -6 -14 -11 -21 -11 -8 0 -21 -13 -30
-30 -9 -17 -22 -30 -30 -30 -7 0 -17 -9 -20 -20 -4 -12 -16 -30 -28 -40 -18
-17 -18 -20 -4 -20 10 0 17 -8 17 -19 0 -14 6 -17 24 -14 17 4 27 -1 35 -16 6
-11 17 -18 25 -15 8 3 17 1 21 -5 8 -13 55 -14 88 -2 14 6 50 6 83 2 33 -5
106 -4 164 1 58 6 121 10 140 9 19 0 98 -1 175 -2 77 -1 143 -6 146 -11 4 -6
21 -6 45 0 42 10 390 9 400 -1 6 -6 39 -4 137 9 21 2 36 1 33 -4 -3 -5 34 -9
82 -10 48 0 117 -1 154 -2 37 -1 72 1 78 5 5 3 10 2 10 -3 0 -6 17 -10 38 -9
71 2 296 -15 320 -24 13 -5 34 -6 48 -3 15 4 34 0 49 -10 14 -9 25 -12 25 -7
0 6 6 8 13 6 14 -5 90 -16 127 -18 14 -1 28 -6 32 -12 5 -7 14 -6 27 2 15 10
20 10 24 0 3 -9 10 -9 28 0 18 7 31 8 43 1 10 -6 21 -6 25 -2 3 5 24 10 45 10
26 1 45 8 55 21 9 10 31 28 49 38 17 11 32 24 32 30 0 5 13 18 28 29 15 10 46
44 68 74 56 80 82 129 182 342 l40 85 93 14 c52 8 124 16 160 18 l66 5 6 262
c4 143 7 486 7 761 0 275 5 892 10 1370 10 841 7 1216 -11 1198 -5 -5 -12
-400 -15 -878 -4 -479 -7 -871 -8 -871 -1 -2 -483 -31 -721 -44 -99 -5 -232
-13 -296 -16 l-116 -7 -7 27 c-4 15 -6 443 -6 952 1 510 -1 928 -3 931 -3 2
-14 -8 -26 -23 -18 -23 -30 -27 -76 -29 -30 -1 -57 -4 -60 -6 -3 -4 -9 -1747
-6 -1826 1 -9 19 -13 55 -13 30 0 57 -4 60 -8 3 -5 -6 -20 -20 -35 -13 -14
-24 -30 -24 -34 0 -4 -9 -23 -20 -41 -16 -27 -23 -31 -38 -23 -13 7 -19 6 -21
-2 -6 -27 -19 -416 -20 -589 -1 -219 21 -192 -171 -208 -174 -14 -589 -47
-745 -60 -71 -5 -186 -14 -255 -19 -69 -6 -181 -11 -250 -13 l-125 -3 -5 1720
c-3 946 -9 1710 -13 1698 -5 -15 -15 -22 -28 -20 -11 2 -53 -2 -95 -8 -41 -7
-77 -8 -80 -4 -2 4 -11 6 -19 3 -8 -4 -13 -10 -10 -14 3 -5 -4 -6 -15 -3 -17
5 -20 11 -15 34 4 18 2 29 -4 29 -6 0 -11 7 -11 15 0 8 9 15 20 15 11 0 20 6
20 14 0 10 17 18 48 23 55 9 222 9 272 -1 19 -4 71 -9 115 -12 44 -3 84 -10
89 -15 6 -5 15 -4 24 3 8 7 16 8 20 2 4 -5 25 -10 47 -11 22 -1 138 -6 259
-12 120 -6 224 -8 230 -3 41 29 915 -6 978 -39 27 -14 22 -46 -7 -53 -14 -4
-25 -13 -25 -21 0 -13 -12 -19 -32 -16 -11 1 -20 -37 -12 -50 4 -7 8 -42 10
-79 1 -38 9 -82 19 -100 9 -17 18 -39 20 -48 2 -10 5 -24 7 -32 1 -8 -4 -14
-12 -15 -25 0 -24 -34 2 -44 13 -5 172 -17 353 -25 223 -11 346 -21 379 -31
47 -14 146 -21 146 -10 0 15 -566 596 -584 600 -37 8 -294 25 -536 35 -129 6
-309 15 -400 20 -91 5 -266 14 -390 20 -124 6 -292 15 -375 20 -82 5 -251 14
-375 20 -261 12 -725 36 -955 50 -217 13 -919 43 -1030 44 -88 1 -91 0 -150
-38 -435 -285 -1307 -865 -1327 -884 -17 -14 -18 -77 -18 -1058 0 -583 -4
-1045 -9 -1048 -9 -6 -20 45 -22 99 -1 29 -1 30 -9 5 -5 -15 -8 -18 -9 -9 -1
9 -8 19 -15 22 -11 4 -13 16 -9 41 7 45 -3 86 -22 86 -21 0 -19 -18 3 -23 16
-4 16 -4 0 -11 -25 -11 -47 15 -41 47 4 18 1 27 -7 27 -7 0 -10 -8 -7 -20 3
-11 1 -23 -4 -26 -5 -3 -9 73 -10 183 0 103 -2 537 -5 963 -2 426 -1 784 2
795 3 11 25 30 49 42 56 27 474 293 760 481 398 263 617 406 860 562 132 85
330 214 440 287 110 73 319 208 465 302 345 221 887 581 877 581 -5 0 -21 -8
-35 -19 -63 -44 -192 -103 -192 -87 0 3 8 12 17 22 16 16 16 16 -6 9 -21 -6
-22 -5 -16 17 4 12 12 29 17 36 7 8 7 12 -1 12 -8 0 -9 5 -2 19 6 10 8 21 5
23 -3 3 6 8 18 11 14 4 24 14 25 26 1 17 -1 19 -17 9 -10 -7 -17 -16 -14 -20
3 -4 -2 -5 -10 -2 -13 5 -12 9 7 23 54 42 256 174 527 344 52 32 98 64 102 71
4 6 8 221 8 479 0 257 4 467 8 467 4 0 35 -33 68 -72 32 -40 137 -156 233
-258 370 -393 489 -519 591 -625 58 -60 144 -150 190 -200 47 -49 126 -132
175 -185 460 -487 614 -658 642 -715 6 -11 10 -65 9 -120 -1 -83 -5 -106 -21
-130 -27 -40 -45 -101 -45 -152 0 -24 -4 -43 -10 -43 -5 0 -10 -6 -10 -14 0
-7 -8 -16 -19 -19 -22 -5 -32 -49 -30 -135 2 -59 -13 -98 -31 -87 -5 3 -12 0
-16 -6 -4 -8 -3 -9 4 -5 7 4 12 1 12 -8 0 -10 6 -13 18 -10 13 5 14 4 3 -4 -8
-6 -21 -8 -30 -4 -9 3 36 -48 100 -114 64 -65 143 -148 175 -183 68 -74 55
-60 333 -354 l214 -227 48 0 48 0 3 123 3 122 645 5 645 5 -46 50 c-26 28 -84
93 -130 147 -71 81 -382 430 -824 923 -282 315 -505 554 -475 510 8 -11 23
-31 35 -44 14 -17 16 -25 8 -28 -7 -3 -13 -9 -13 -14 0 -4 6 -6 14 -3 8 3 17
1 20 -4 3 -5 -2 -9 -11 -8 -9 0 -20 -11 -26 -29 -6 -16 -17 -35 -26 -42 -14
-11 -13 -12 6 -13 16 0 20 -5 16 -20 -3 -11 -13 -20 -23 -20 -10 0 -20 -5 -22
-11 -4 -12 -114 104 -294 311 -120 138 -773 867 -918 1025 -51 55 -215 237
-366 405 -151 168 -298 330 -326 360 -85 91 -224 250 -240 276 -9 13 -20 24
-25 24 -9 0 -501 -303 -774 -478 -400 -255 -407 -259 -355 -211 19 18 34 37
32 42 -2 5 4 7 12 4 23 -9 27 4 10 31 -15 23 -15 24 8 17 17 -5 19 -4 8 4 -13
9 -12 12 5 25 24 18 7 21 -43 7 -25 -8 -32 -7 -32 5 0 12 12 18 32 16 3 -1 9
5 12 13 6 16 0 17 -49 17 -16 -1 -22 2 -13 4 10 3 15 11 11 20 -4 10 7 27 26
45 34 31 47 37 35 17 -4 -7 2 -4 13 7 12 11 21 22 21 25 0 23 4 30 14 24 6 -4
8 -3 5 3 -4 6 2 18 12 27 15 13 20 14 24 4 4 -9 6 -7 6 4 1 11 60 52 169 117
363 217 537 329 533 342 -2 8 -6 64 -8 124 -3 61 -6 110 -7 111 0 0 -64 -17
-141 -38z m-621 -713 c-4 -8 -14 -15 -23 -15 -14 1 -13 3 3 15 25 19 27 19 20
0z m-59 -45 c-3 -5 -13 -10 -21 -10 -8 0 -12 5 -9 10 3 6 13 10 21 10 8 0 12
-4 9 -10z m3309 -1996 c3 -8 2 -12 -4 -9 -6 3 -10 10 -10 16 0 14 7 11 14 -7z
m-549 -74 c3 -5 1 -10 -4 -10 -6 0 -11 5 -11 10 0 6 2 10 4 10 3 0 8 -4 11
-10z m-4350 -1375 c318 -12 816 -25 1220 -30 237 -3 463 -8 503 -11 l72 -6 -2
-1011 -3 -1012 -105 -7 c-128 -8 -594 -35 -745 -43 -60 -3 -218 -12 -350 -20
-132 -8 -287 -17 -345 -20 -58 -3 -130 -8 -160 -10 -252 -21 -373 -26 -384
-15 -12 12 -15 2151 -3 2183 6 15 17 17 84 12 43 -2 141 -7 218 -10z m3863
-227 c4 6 6 -44 5 -110 -3 -149 -13 -170 -13 -27 0 57 -2 120 -4 139 -2 19 -1
24 1 11 3 -14 8 -20 11 -13z m12 -528 c1 -102 2 -243 1 -315 0 -71 -1 -313 -1
-537 0 -265 -3 -408 -10 -408 -7 0 -10 263 -9 773 1 424 5 750 9 722 4 -27 9
-133 10 -235z m-7250 30 c0 -5 -4 -10 -10 -10 -5 0 -10 5 -10 10 0 6 5 10 10
10 6 0 10 -4 10 -10z m-63 -36 c-3 -3 -12 -4 -19 -1 -8 3 -5 6 6 6 11 1 17 -2
13 -5z m-123 -173 c3 -5 -1 -12 -10 -15 -22 -9 -24 -8 -24 9 0 16 25 21 34 6z
m56 -6 c-7 -8 -16 -12 -21 -9 -13 8 -1 24 18 24 13 0 13 -3 3 -15z m76 0 c9
-8 11 -15 6 -15 -5 0 -15 7 -22 15 -7 8 -9 15 -6 15 4 0 14 -7 22 -15z m-3
-50 c-7 -21 -13 -19 -13 6 0 11 4 18 10 14 5 -3 7 -12 3 -20z m170 -625 c-3
-11 -7 -20 -9 -20 -2 0 -4 9 -4 20 0 11 4 20 9 20 5 0 7 -9 4 -20z m1804 -597
c-3 -10 -5 -2 -5 17 0 19 2 27 5 18 2 -10 2 -26 0 -35z m0 -75 c-2 -13 -4 -5
-4 17 -1 22 1 32 4 23 2 -10 2 -28 0 -40z m703 -392 c0 -3 -4 -8 -10 -11 -5
-3 -10 -1 -10 4 0 6 5 11 10 11 6 0 10 -2 10 -4z m310 -26 c37 -5 44 -8 22 -9
-18 0 -31 -5 -28 -10 9 -14 75 -9 80 6 3 7 13 13 21 13 9 0 14 -4 11 -9 -9
-14 16 -28 52 -29 17 0 33 -1 35 -2 17 -12 65 -14 95 -5 16 5 22 3 22 -7 0
-12 15 -15 68 -15 137 -1 152 -2 152 -18 0 -16 3 -16 85 -21 80 -5 150 -16
155 -25 7 -10 93 -15 108 -5 6 4 21 2 32 -4 14 -8 25 -7 40 2 16 10 24 10 40
0 11 -7 20 -9 20 -5 0 5 32 9 72 11 39 1 77 7 84 13 8 7 17 4 29 -8 17 -16 19
-16 47 0 16 9 38 17 48 17 10 0 21 6 23 13 4 9 7 9 14 0 12 -17 148 -15 188 2
17 7 43 16 59 20 23 5 27 3 23 -9 -7 -18 8 -22 18 -6 3 6 11 10 16 10 6 0 8
-4 4 -9 -8 -14 31 -23 68 -17 22 4 26 3 12 -2 -16 -8 -14 -10 14 -15 19 -4 45
-7 58 -7 22 0 23 -2 9 -15 -8 -8 -30 -15 -48 -15 -29 -1 -87 -16 -293 -76 -27
-8 -180 -48 -340 -89 -159 -41 -360 -92 -445 -114 -197 -51 -274 -67 -435 -92
-130 -19 -557 -65 -712 -76 -46 -3 -83 -9 -83 -13 0 -4 19 -6 43 -4 64 6 510
35 612 40 50 2 195 9 324 15 218 9 406 34 541 69 19 5 76 19 125 31 87 20 126
30 300 79 103 29 408 121 415 125 6 4 132 39 196 55 18 4 38 4 45 -1 16 -10
15 -11 -36 -38 -49 -25 -72 -45 -106 -91 -23 -32 -59 -101 -59 -114 0 -11 -80
-119 -98 -132 -26 -18 -124 -41 -212 -50 -41 -4 -230 -8 -420 -10 -331 -2
-438 -6 -498 -20 -32 -7 -216 -34 -252 -37 -14 -1 -31 -6 -37 -10 -7 -5 -17
-6 -21 -3 -5 3 -26 1 -47 -5 -21 -6 -77 -13 -124 -15 -47 -2 -113 -9 -146 -14
-33 -5 -139 -14 -235 -20 -96 -6 -176 -14 -177 -18 -2 -4 -29 -6 -60 -5 -32 1
-65 -1 -73 -4 -33 -14 -106 -18 -150 -7 -19 4 -56 8 -82 9 -27 0 -48 3 -48 6
0 3 -38 5 -85 5 -58 -1 -85 2 -85 10 0 6 -10 9 -22 7 -14 -3 -32 4 -46 17 -22
21 -22 23 -6 41 16 18 16 19 -1 19 -28 0 -14 7 24 13 19 3 38 12 42 19 6 9 9
9 9 1 0 -8 17 -10 58 -7 112 10 99 -23 106 276 7 317 7 322 15 310 10 -15 51
-25 51 -12 0 6 5 8 10 5 6 -3 10 2 11 12 0 12 2 14 6 4 5 -11 7 -11 14 0 7 11
11 10 23 -6 13 -17 15 -17 16 -4 0 21 20 29 70 29 21 0 40 5 42 11 2 6 21 13
41 14 29 3 37 0 37 -13 1 -15 2 -15 15 2 11 14 18 16 28 8 14 -12 57 -5 57 9
0 5 9 9 19 9 11 0 22 6 24 13 4 8 8 9 14 1 9 -12 83 -13 83 -1 0 4 5 7 11 7 5
0 7 -4 4 -10 -4 -6 14 -10 44 -11 28 -1 64 -2 80 -3 24 -1 27 1 18 13 -9 11
-9 13 0 8 6 -4 15 -2 18 4 4 6 14 7 24 3 9 -4 41 -10 71 -14z m1800 -110 c0
-5 -12 -10 -27 -10 -22 0 -25 2 -13 10 20 13 40 13 40 0z m15 -712 c6 0 35 3
65 6 30 3 100 1 155 -4 55 -5 127 -12 160 -15 33 -3 92 -13 130 -22 67 -15 85
-21 138 -42 12 -5 33 -12 47 -15 14 -3 34 -11 44 -19 17 -12 9 -15 -70 -20
-106 -8 -146 -15 -158 -28 -6 -5 -18 -9 -27 -9 -9 0 -22 -7 -29 -15 -8 -9 -21
-13 -32 -9 -14 4 -21 0 -25 -15 -3 -12 -17 -22 -37 -27 -17 -3 -38 -12 -46
-19 -8 -7 -28 -15 -45 -19 -42 -10 -115 -40 -115 -48 0 -10 -72 -32 -97 -29
-11 1 -24 -3 -28 -8 -3 -6 -15 -11 -27 -11 -11 0 -34 -6 -51 -14 -32 -14 -99
-37 -127 -43 -8 -2 -35 -4 -60 -4 -25 -1 -55 -8 -67 -15 -12 -8 -37 -14 -56
-14 -18 0 -39 -6 -46 -12 -9 -8 -11 -9 -7 -1 4 7 -4 10 -27 7 -35 -4 -72 -11
-72 -14 0 -5 -84 -10 -145 -10 -39 0 -67 5 -72 13 -6 9 -8 9 -8 0 0 -18 -25
-16 -40 2 -7 9 -23 15 -34 13 -12 -2 -26 3 -32 11 -8 10 -15 11 -32 2 -11 -6
-27 -11 -34 -10 -7 0 -4 4 7 9 17 7 16 9 -10 11 -30 2 -30 2 5 8 19 3 -289 6
-685 5 -635 0 -735 -2 -849 -18 -222 -30 -345 -84 -487 -212 l-74 -66 -3 38
c-2 22 -2 138 0 260 3 244 9 269 54 239 20 -13 25 -13 38 1 14 13 42 15 181
12 91 -2 166 0 168 4 4 11 297 18 297 7 0 -6 29 -9 70 -8 39 1 73 -1 76 -4 4
-4 14 -2 23 2 9 5 36 5 61 1 26 -5 49 -5 54 1 14 13 32 11 49 -5 16 -16 83
-23 111 -11 11 5 21 3 26 -6 6 -9 33 -13 97 -13 128 1 394 13 403 19 5 3 11
-1 13 -7 4 -9 8 -10 14 -2 9 12 95 26 183 30 30 1 65 5 77 7 11 3 43 9 70 13
26 3 53 11 59 15 6 5 40 11 75 13 35 2 64 5 64 6 0 1 63 13 140 26 190 33 191
33 263 50 34 8 66 13 71 10 10 -7 201 20 210 29 3 4 15 3 26 0 11 -4 25 -7 30
-7z m3214 -152 c-2 -2 -51 -6 -109 -9 -59 -3 -92 -2 -75 3 30 8 192 13 184 6z
m-279 -32 c-36 -8 -123 -30 -195 -50 -126 -34 -197 -49 -280 -59 -34 -4 -32
-3 15 11 30 8 71 19 90 24 19 4 67 18 105 29 39 12 93 26 120 31 28 5 66 13
85 18 19 6 55 10 80 10 44 0 44 -1 -20 -14z"/>
<path d="M6203 7523 c-7 -12 -13 -38 -13 -57 0 -43 -4 -44 -34 -11 -31 34 -43
31 -50 -10 -5 -25 -17 -42 -41 -58 -19 -13 -32 -27 -29 -30 4 -4 -2 -10 -12
-14 -10 -4 -28 -15 -38 -25 -11 -10 -29 -18 -41 -18 -12 0 -25 -3 -28 -7 -4
-3 -26 -7 -49 -7 l-43 -1 -3 -201 -3 -201 62 -7 c113 -11 329 -7 334 7 3 7 4
158 3 337 -3 266 -5 321 -15 303z"/>
<path d="M7554 7533 c-14 -11 -25 -40 -30 -88 -7 -57 -23 -113 -34 -120 -6 -3
-11 -27 -11 -53 -2 -54 -15 -120 -18 -87 l-2 20 -9 -20 c-18 -43 -24 -61 -24
-75 -1 -8 -11 -16 -23 -18 -19 -3 -21 -9 -18 -48 2 -32 -1 -47 -11 -51 -17 -6
-19 -33 -3 -33 6 0 8 -7 5 -16 -16 -43 -18 -65 -5 -62 8 2 13 -3 11 -12 -2 -8
-6 -44 -9 -80 -3 -36 -10 -67 -15 -69 -5 -1 -2 -8 7 -15 12 -8 14 -20 10 -39
-6 -22 -13 -27 -37 -27 -27 0 -30 -3 -24 -22 3 -13 6 -31 6 -40 0 -11 8 -18
19 -18 21 0 31 -19 31 -56 0 -13 6 -24 13 -24 6 -1 2 -9 -11 -19 -23 -20 -21
-45 4 -55 9 -3 14 -20 14 -46 0 -31 -4 -40 -17 -41 -10 0 -13 -3 -6 -6 7 -2
15 -21 19 -41 4 -20 13 -45 22 -54 8 -10 12 -27 9 -39 -5 -17 -2 -20 14 -16
22 6 22 8 8 -32 -9 -25 -8 -38 4 -64 8 -17 17 -59 18 -92 3 -54 27 -107 60
-135 9 -7 23 -61 23 -89 1 -30 24 -37 101 -33 l55 4 -2 906 -3 907 -65 3 c-36
1 -70 -1 -76 -5z m-127 -659 c-3 -3 -12 -4 -19 -1 -8 3 -5 6 6 6 11 1 17 -2
13 -5z"/>
<path d="M7345 6931 c-3 -5 -1 -12 5 -16 5 -3 10 1 10 9 0 18 -6 21 -15 7z"/>
<path d="M5820 6291 c0 -452 4 -551 22 -551 5 0 8 6 7 13 -1 6 -1 23 0 36 1
20 3 22 17 10 11 -9 18 -9 22 -2 8 12 37 11 65 -1 10 -5 23 -3 32 4 12 10 15
9 15 -4 0 -8 11 -18 25 -22 14 -4 24 -8 21 -11 -2 -3 5 -16 17 -29 12 -14 24
-37 27 -52 5 -24 11 -28 59 -34 30 -3 59 -4 65 -2 8 3 11 165 11 554 l0 550
-202 0 -203 0 0 -459z"/>
<path d="M7305 6671 c-7 -12 12 -24 25 -16 11 7 4 25 -10 25 -5 0 -11 -4 -15
-9z"/>
<path d="M640 11894 c0 -8 5 -12 10 -9 6 4 8 11 5 16 -9 14 -15 11 -15 -7z"/>
<path d="M683 11828 c-2 -16 1 -18 10 -9 7 7 8 14 1 21 -6 6 -10 2 -11 -12z"/>
<path d="M607 11803 c-12 -11 -8 -23 8 -23 21 0 19 -18 -2 -23 -14 -4 -12 -5
5 -6 15 -1 22 5 22 18 0 21 -23 45 -33 34z"/>
<path d="M8634 11794 c-18 -14 -18 -15 4 -4 12 6 22 13 22 15 0 8 -5 6 -26
-11z"/>
<path d="M650 11780 c0 -5 5 -10 10 -10 6 0 10 5 10 10 0 6 -4 10 -10 10 -5 0
-10 -4 -10 -10z"/>
<path d="M540 11740 c0 -5 5 -10 10 -10 6 0 10 5 10 10 0 6 -4 10 -10 10 -5 0
-10 -4 -10 -10z"/>
<path d="M620 11720 c0 -5 5 -10 10 -10 6 0 10 5 10 10 0 6 -4 10 -10 10 -5 0
-10 -4 -10 -10z"/>
<path d="M660 11709 c0 -5 5 -7 10 -4 6 3 10 8 10 11 0 2 -4 4 -10 4 -5 0 -10
-5 -10 -11z"/>
<path d="M515 11670 c-3 -5 -23 -10 -43 -10 -46 0 -65 -11 -56 -33 3 -10 1
-17 -5 -17 -6 0 -11 5 -11 12 0 8 -3 9 -10 2 -8 -8 -7 -19 1 -37 12 -26 35
-28 25 -2 -7 20 87 44 99 25 10 -15 36 -12 50 7 7 9 26 16 43 16 30 0 31 1 12
14 -21 15 -60 3 -60 -18 0 -6 -8 -9 -17 -7 -30 6 -20 30 17 44 l35 12 -37 1
c-20 1 -40 -3 -43 -9z"/>
<path d="M330 11620 c0 -13 7 -20 19 -20 14 0 18 5 14 20 -3 11 -12 20 -19 20
-8 0 -14 -9 -14 -20z"/>
<path d="M564 11595 c-4 -10 -20 -15 -45 -15 -28 0 -39 -4 -39 -15 0 -11 11
-15 40 -15 29 0 40 4 40 15 0 11 7 14 24 9 18 -4 25 -1 29 15 4 17 0 21 -19
21 -14 0 -27 -7 -30 -15z"/>
<path d="M316 11283 c-6 -14 -5 -15 5 -6 7 7 10 15 7 18 -3 3 -9 -2 -12 -12z"/>
<path d="M350 11290 c0 -5 5 -10 10 -10 6 0 10 5 10 10 0 6 -4 10 -10 10 -5 0
-10 -4 -10 -10z"/>
<path d="M7666 10951 c-4 -5 3 -7 14 -4 23 6 26 13 6 13 -8 0 -17 -4 -20 -9z"/>
<path d="M270 10940 c0 -5 5 -10 11 -10 5 0 7 5 4 10 -3 6 -8 10 -11 10 -2 0
-4 -4 -4 -10z"/>
<path d="M266 10885 c-3 -8 -1 -17 3 -20 5 -3 11 2 15 10 3 8 1 17 -3 20 -5 3
-11 -2 -15 -10z"/>
<path d="M113 10753 c-8 -16 -9 -31 -4 -37 5 -6 11 -27 13 -46 l4 -35 9 35 9
35 13 -40 12 -40 -1 53 c-1 38 -5 52 -16 52 -10 0 -13 8 -10 25 7 33 -14 32
-29 -2z"/>
<path d="M148 10580 l-4 -29 20 22 c14 14 18 25 11 29 -17 13 -23 9 -27 -22z"/>
<path d="M52 10493 c5 -25 28 -28 28 -4 0 12 -6 21 -16 21 -9 0 -14 -7 -12
-17z"/>
<path d="M0 10395 l0 -65 30 0 c34 0 37 6 14 31 -15 17 -14 19 10 25 28 7 36
24 11 24 -8 0 -19 8 -24 19 -6 10 -17 21 -26 25 -12 4 -15 -5 -15 -59z"/>
<path d="M85 10340 c3 -5 12 -7 20 -3 21 7 19 13 -6 13 -11 0 -18 -4 -14 -10z"/>
<path d="M0 10270 c0 -30 13 -40 25 -19 4 5 19 15 33 20 21 8 23 12 12 19 -8
6 -27 10 -42 10 -24 0 -28 -4 -28 -30z"/>
<path d="M70 10229 c0 -5 5 -7 10 -4 6 3 10 8 10 11 0 2 -4 4 -10 4 -5 0 -10
-5 -10 -11z"/>
<path d="M10 10210 c0 -5 5 -10 10 -10 6 0 10 5 10 10 0 6 -4 10 -10 10 -5 0
-10 -4 -10 -10z"/>
<path d="M98 10153 c7 -3 16 -2 19 1 4 3 -2 6 -13 5 -11 0 -14 -3 -6 -6z"/>
<path d="M8405 10010 c-3 -5 -2 -10 4 -10 5 0 13 5 16 10 3 6 2 10 -4 10 -5 0
-13 -4 -16 -10z"/>
<path d="M8345 9970 c-16 -11 -25 -20 -19 -20 11 0 64 39 54 40 -3 0 -18 -9
-35 -20z"/>
<path d="M8274 9924 c-18 -14 -18 -15 4 -4 12 6 22 13 22 15 0 8 -5 6 -26 -11z"/>
<path d="M8443 9857 c-198 -122 -412 -259 -693 -445 -179 -118 -374 -247 -435
-286 -92 -59 -962 -639 -1118 -745 -27 -18 -46 -35 -43 -38 12 -12 70 12 103
43 l36 34 81 -6 c185 -12 1690 -58 1933 -59 172 0 216 9 139 29 -51 13 -44 26
14 26 68 0 63 15 -7 26 l-58 9 -5 140 c-4 118 -8 140 -21 143 -20 4 -29 -58
-29 -215 0 -69 -4 -113 -10 -113 -5 0 -10 7 -10 15 0 15 -20 22 -75 27 -29 3
-30 5 -36 63 -4 33 -7 99 -8 147 -1 83 -10 113 -28 86 -4 -7 -10 -79 -13 -161
-5 -159 -23 -206 -28 -74 l-3 78 -42 -3 -42 -3 -3 -68 c-2 -58 -6 -68 -20 -65
-14 3 -18 17 -20 76 -2 54 -6 72 -17 72 -22 0 -29 20 -11 33 22 17 11 129 -13
125 -14 -3 -16 -24 -19 -138 -2 -112 -5 -137 -19 -147 -9 -7 -20 -13 -25 -13
-4 0 -9 68 -10 152 -2 110 -6 152 -15 156 -10 3 -13 -26 -13 -122 0 -117 -2
-127 -23 -152 -19 -21 -32 -27 -61 -26 -84 3 -107 43 -114 200 -4 93 -7 112
-19 108 -8 -4 -19 -6 -25 -6 -6 0 -8 -6 -5 -14 3 -8 -3 -31 -13 -51 l-19 -36
26 -37 c20 -29 24 -45 20 -77 -8 -56 -35 -75 -107 -75 -83 0 -84 3 -76 170 7
136 7 140 -13 140 -11 0 -23 5 -26 10 -9 14 15 42 30 36 9 -3 10 5 6 26 -8 40
-1 109 10 102 5 -3 9 8 9 25 0 16 -5 33 -11 37 -12 7 -8 51 13 134 l14 55 170
115 c206 140 640 422 768 499 l39 24 471 -474 c460 -464 666 -680 666 -701 0
-5 -9 -12 -20 -15 -19 -5 -20 -14 -20 -129 0 -106 2 -126 16 -131 9 -3 24 -2
33 4 13 8 16 32 18 128 1 64 4 119 7 122 2 3 11 -4 20 -14 8 -10 46 -52 83
-93 173 -189 229 -261 218 -280 -3 -5 -1 -10 5 -10 6 0 9 -4 6 -8 -5 -9 204
-47 223 -41 6 2 -16 26 -48 52 -32 27 -125 117 -207 200 -82 84 -268 274 -413
422 -389 397 -1005 1015 -1011 1015 -3 -1 -28 -15 -57 -33z m-1223 -1152 c0
-146 13 -185 62 -185 54 0 58 11 58 151 0 70 4 130 9 133 5 4 17 3 26 0 14 -6
16 -23 13 -141 l-3 -135 -33 -29 c-59 -52 -127 -34 -163 45 -14 31 -19 65 -19
143 0 115 4 133 31 133 18 0 19 -9 19 -115z"/>
<path d="M0 9849 c0 -5 11 -9 25 -9 32 0 32 6 0 12 -14 3 -25 1 -25 -3z"/>
<path d="M80 9829 c0 -5 5 -7 10 -4 6 3 10 8 10 11 0 2 -4 4 -10 4 -5 0 -10
-5 -10 -11z"/>
<path d="M8114 9824 c-18 -14 -18 -15 4 -4 12 6 22 13 22 15 0 8 -5 6 -26 -11z"/>
<path d="M0 9778 c0 -10 3 -18 8 -19 39 -5 60 -5 56 2 -2 4 -13 6 -24 4 -11
-2 -24 4 -30 13 -9 16 -9 16 -10 0z"/>
<path d="M8009 9753 c-13 -16 -12 -17 4 -4 9 7 17 15 17 17 0 8 -8 3 -21 -13z"/>
<path d="M0 9195 c0 -8 2 -15 4 -15 2 0 6 7 10 15 3 8 1 15 -4 15 -6 0 -10 -7
-10 -15z"/>
<path d="M10850 9181 c0 -5 5 -13 10 -16 6 -3 10 -2 10 4 0 5 -4 13 -10 16 -5
3 -10 2 -10 -4z"/>
<path d="M7497 8763 c-4 -3 -7 -24 -7 -45 0 -35 2 -38 28 -38 49 0 69 42 36
74 -16 16 -46 21 -57 9z"/>
<path d="M7713 8644 c7 -121 15 -144 51 -144 40 0 46 18 46 135 0 67 -4 105
-9 96 -7 -11 -11 -9 -20 8 -8 14 -21 21 -43 21 l-31 0 6 -116z"/>
<path d="M8073 8725 c-7 -8 -13 -35 -13 -60 0 -44 1 -45 30 -45 l31 0 -3 57
c-3 61 -20 78 -45 48z"/>
<path d="M8677 8703 c-3 -5 -6 -89 -8 -187 l-4 -180 35 -7 c19 -4 111 -9 205
-10 l170 -3 3 27 c2 17 -2 27 -10 28 -50 2 -105 12 -115 21 -9 7 -13 55 -15
156 -3 131 -5 147 -20 150 -15 3 -18 -4 -18 -44 0 -28 -6 -54 -15 -64 -14 -15
-14 -18 0 -30 11 -9 15 -33 15 -91 0 -69 -2 -80 -22 -93 -24 -17 -88 -22 -88
-7 0 5 16 12 35 15 57 11 54 28 -4 20 -48 -6 -51 -5 -61 20 -5 15 -10 86 -10
157 l0 129 -34 0 c-19 0 -37 -3 -39 -7z"/>
<path d="M8420 8685 c0 -15 26 -20 54 -9 28 11 17 24 -19 24 -24 0 -35 -5 -35
-15z"/>
<path d="M9025 8681 c-28 -4 -41 -11 -43 -25 -3 -16 0 -18 23 -12 16 4 33 2
41 -5 8 -6 22 -9 33 -6 10 2 26 0 35 -5 15 -9 17 -26 15 -152 -1 -78 1 -147 5
-154 8 -14 53 -16 58 -3 2 4 13 11 25 15 16 5 25 2 32 -12 9 -16 23 -19 88
-21 43 0 113 -4 156 -7 71 -6 80 -5 98 14 25 28 24 32 -9 32 -65 0 -90 66 -91
238 -1 134 -18 85 -26 -75 -7 -140 -15 -180 -36 -167 -5 3 -9 36 -9 75 l0 69
-40 0 -40 0 0 -68 c0 -73 -4 -84 -26 -75 -11 4 -14 37 -14 164 l0 159 -30 -2
-30 -2 0 -149 c0 -148 0 -148 -22 -145 -23 3 -23 5 -23 151 l0 147 -32 6 c-18
3 -44 3 -58 0 -18 -5 -25 -2 -25 9 0 8 -3 14 -7 14 -5 -1 -26 -5 -48 -8z"/>
<path d="M8790 8658 c0 -34 14 -50 41 -46 19 2 24 9 24 33 0 27 -4 30 -32 33
-29 3 -33 0 -33 -20z"/>
<path d="M9356 8663 c-3 -4 -6 -33 -6 -65 l0 -58 43 1 c23 1 34 3 25 6 -11 3
-18 14 -18 27 0 62 -24 109 -44 89z"/>
<path d="M9423 8625 c0 -22 2 -30 4 -17 2 12 2 30 0 40 -3 9 -5 -1 -4 -23z"/>
<path d="M7490 8581 c0 -51 3 -61 20 -66 73 -23 109 74 40 110 -52 27 -60 22
-60 -44z"/>
<path d="M8437 8572 c-8 -11 4 -62 14 -62 5 0 9 6 9 13 0 9 3 8 9 -2 7 -10 12
-8 24 10 12 17 14 26 5 36 -11 14 -54 18 -61 5z"/>
<path d="M8790 8534 c-14 -35 -13 -46 6 -72 15 -22 17 -22 34 -7 36 33 30 84
-13 98 -13 5 -20 0 -27 -19z"/>
<path d="M8982 8508 c2 -18 8 -31 13 -29 6 1 9 7 8 12 -5 15 17 10 23 -6 7
-18 34 -20 34 -2 0 6 3 22 6 35 6 20 3 22 -40 22 -47 0 -47 0 -44 -32z"/>
<path d="M9048 8433 c7 -3 16 -2 19 1 4 3 -2 6 -13 5 -11 0 -14 -3 -6 -6z"/>
<path d="M8288 7969 c-2 -7 -2 -24 0 -36 4 -20 10 -23 51 -23 25 -1 120 -5
211 -10 91 -6 253 -14 360 -20 396 -19 502 -29 523 -48 18 -16 19 -27 14 -152
-15 -362 -31 -640 -38 -640 -5 0 -6 -6 -4 -12 3 -7 0 -20 -5 -28 -9 -13 -11
-13 -20 0 -8 12 -10 11 -10 -7 0 -13 3 -22 8 -20 8 2 12 -6 12 -28 0 -20 -41
-36 -57 -23 -13 11 -28 -7 -18 -23 4 -5 -4 -19 -16 -30 -22 -19 -22 -21 -6
-30 23 -13 22 -29 -3 -29 -13 0 -22 -10 -29 -32 -11 -40 -12 -12 -2 58 6 41 4
51 -6 47 -9 -4 -11 0 -7 11 3 9 1 16 -4 16 -6 0 -13 8 -15 18 -3 9 -5 -75 -6
-188 -2 -265 -16 -456 -41 -554 -39 -153 -144 -338 -249 -441 -30 -28 -41 -34
-41 -22 0 9 -4 17 -9 17 -18 0 -110 81 -149 132 -56 73 -98 162 -123 260 -19
74 -22 121 -28 444 l-6 362 -52 -34 c-53 -34 -109 -100 -139 -164 -9 -19 -21
-40 -26 -47 -12 -15 -41 -4 -34 13 3 8 0 14 -7 14 -10 0 -14 -47 -16 -192 -4
-210 -17 -1641 -15 -1646 1 -1 43 2 95 7 236 26 301 31 399 36 58 3 155 10
215 15 308 28 369 31 480 28 l120 -3 0 1481 0 1482 -59 6 c-32 3 -107 6 -165
6 -58 0 -241 7 -406 14 -558 27 -672 30 -677 15z m1022 -1215 c0 -8 -4 -14
-10 -14 -5 0 -10 9 -10 21 0 11 5 17 10 14 6 -3 10 -13 10 -21z"/>
<path d="M10685 7490 c-8 -13 4 -16 92 -29 88 -13 103 -14 103 -2 0 18 -185
47 -195 31z"/>
<path d="M10958 7396 c-14 -6 -42 -27 -61 -46 -35 -36 -108 -80 -133 -80 -8 0
-17 -6 -20 -14 -3 -8 -37 -25 -76 -37 -66 -20 -114 -50 -101 -63 3 -3 -2 -8
-11 -12 -9 -3 -16 -12 -16 -20 0 -7 -8 -18 -17 -23 -16 -9 -16 -12 -3 -21 13
-9 13 -12 -2 -20 -10 -7 -15 -17 -11 -27 4 -9 -1 -21 -12 -29 -14 -11 -16 -16
-6 -28 9 -11 9 -15 -1 -19 -7 -3 -3 -6 10 -6 24 -1 27 -8 13 -31 -22 -33 21
-41 258 -47 l228 -6 7 37 c12 62 5 484 -8 494 -6 6 -22 5 -38 -2z"/>
<path d="M23 7080 c0 -25 2 -35 4 -22 2 12 2 32 0 45 -2 12 -4 2 -4 -23z"/>
<path d="M8930 7106 c0 -2 8 -10 18 -17 15 -13 16 -12 3 4 -13 16 -21 21 -21
13z"/>
<path d="M8980 7066 c0 -2 8 -10 18 -17 15 -13 16 -12 3 4 -13 16 -21 21 -21
13z"/>
<path d="M9020 7036 c0 -2 8 -10 18 -17 15 -13 16 -12 3 4 -13 16 -21 21 -21
13z"/>
<path d="M9060 7006 c0 -3 14 -12 30 -21 17 -9 30 -13 30 -11 0 3 -13 12 -30
21 -16 9 -30 13 -30 11z"/>
<path d="M9140 6961 c8 -5 26 -12 40 -15 l25 -7 -25 15 c-14 9 -32 15 -40 15
-13 0 -13 -1 0 -8z"/>
<path d="M0 6805 c0 -8 5 -15 10 -15 6 0 10 7 10 15 0 8 -4 15 -10 15 -5 0
-10 -7 -10 -15z"/>
<path d="M40 6793 c0 -7 -9 -13 -20 -13 -16 0 -20 -7 -20 -30 0 -18 5 -30 13
-30 18 1 47 25 47 41 0 18 -20 49 -20 32z"/>
<path d="M10485 6760 c-236 -4 -443 -8 -460 -9 l-30 -1 -4 -410 c-2 -315 0
-414 9 -425 16 -20 60 -20 60 0 0 20 17 19 28 -1 7 -13 29 -17 105 -20 53 -1
105 -8 117 -14 12 -6 31 -11 43 -10 12 1 24 1 27 0 3 -1 87 -3 186 -4 100 -2
187 -7 193 -11 19 -11 60 -17 154 -22 l87 -4 -2 468 -3 468 -40 1 c-22 0 -233
-3 -470 -6z"/>
<path d="M2235 6630 c4 -6 11 -8 16 -5 14 9 11 15 -7 15 -8 0 -12 -5 -9 -10z"/>
<path d="M2615 6550 c3 -5 10 -10 16 -10 5 0 9 5 9 10 0 6 -7 10 -16 10 -8 0
-12 -4 -9 -10z"/>
<path d="M1180 6280 c-13 -8 -12 -10 3 -10 9 0 17 5 17 10 0 12 -1 12 -20 0z"/>
<path d="M1230 6199 c0 -5 5 -7 10 -4 6 3 10 8 10 11 0 2 -4 4 -10 4 -5 0 -10
-5 -10 -11z"/>
<path d="M4540 5620 c0 -11 4 -20 9 -20 5 0 7 9 4 20 -3 11 -7 20 -9 20 -2 0
-4 -9 -4 -20z"/>
<path d="M4600 5589 c0 -5 5 -7 10 -4 6 3 10 8 10 11 0 2 -4 4 -10 4 -5 0 -10
-5 -10 -11z"/>
<path d="M35 4670 c-3 -5 1 -10 9 -10 9 0 16 5 16 10 0 6 -4 10 -9 10 -6 0
-13 -4 -16 -10z"/>
<path d="M0 4017 c0 -20 4 -24 20 -20 25 7 23 36 -3 41 -12 3 -17 -3 -17 -21z"/>
<path d="M80 3989 c0 -5 5 -7 10 -4 6 3 10 8 10 11 0 2 -4 4 -10 4 -5 0 -10
-5 -10 -11z"/>
<path d="M17 3686 c-14 -11 -17 -29 -17 -107 1 -80 3 -91 14 -76 7 9 18 17 25
17 6 0 11 12 11 26 0 14 4 23 10 19 6 -3 10 -15 10 -26 0 -12 7 -19 18 -18 10
0 12 3 5 6 -15 6 -17 33 -3 33 6 0 10 -4 10 -10 0 -14 33 -13 48 2 20 20 13
31 -15 24 -20 -5 -24 -4 -13 3 22 15 2 27 -20 13 -26 -16 -25 -4 2 25 20 21
20 24 4 41 -11 13 -25 17 -41 14 -20 -3 -24 -1 -19 12 7 19 -5 20 -29 2z m13
-121 c0 -8 -4 -15 -10 -15 -5 0 -10 7 -10 15 0 8 5 15 10 15 6 0 10 -7 10 -15z"/>
<path d="M145 3670 c3 -5 8 -10 11 -10 2 0 4 5 4 10 0 6 -5 10 -11 10 -5 0 -7
-4 -4 -10z"/>
<path d="M4152 3640 c0 -14 2 -19 5 -12 2 6 2 18 0 25 -3 6 -5 1 -5 -13z"/>
<path d="M146 3611 c-3 -5 1 -11 9 -14 9 -4 12 -1 8 9 -6 16 -10 17 -17 5z"/>
<path d="M25 3480 c-7 -12 2 -30 16 -30 12 0 12 27 0 35 -5 3 -12 1 -16 -5z"/>
<path d="M0 1720 l0 -1720 600 0 c393 0 600 3 600 10 0 6 -7 10 -16 10 -14 0
-14 3 -4 15 8 10 9 19 3 27 -11 14 -11 93 -1 104 4 3 22 8 40 9 18 2 35 4 38
5 3 0 -2 5 -10 10 -8 5 -15 25 -15 47 -1 29 -6 39 -21 41 -25 5 -43 22 -24 23
8 1 25 0 37 0 11 -1 24 3 28 8 4 7 -4 11 -20 11 -25 0 -25 1 -10 30 19 37 19
50 0 50 -14 0 -14 3 0 30 20 39 19 50 -5 50 -17 0 -20 7 -20 40 0 36 3 40 25
40 23 0 25 4 25 45 0 31 5 47 17 54 15 9 16 12 4 20 -12 8 -12 12 -2 25 8 9
20 16 27 16 10 0 14 13 14 40 0 27 -4 40 -14 40 -22 0 -38 24 -24 38 8 8 8 15
-2 27 -16 19 -3 19 30 0 l25 -15 -22 -6 c-28 -8 -29 -20 -4 -34 26 -13 52 -14
31 0 -12 8 -13 13 -3 29 10 15 9 22 -6 35 -10 9 -22 16 -28 16 -6 0 -16 7 -23
15 -16 19 3 45 34 45 19 0 21 5 17 46 -3 44 -2 47 18 41 21 -5 25 1 22 36 -2
12 5 17 26 18 27 1 27 1 -10 18 -37 18 -40 31 -6 31 11 0 21 10 25 25 4 17 13
25 28 25 12 0 16 3 10 8 -6 4 -14 14 -17 22 -4 12 -6 11 -6 -2 -1 -11 -9 -18
-21 -18 -14 0 -21 9 -26 35 -3 20 -4 39 0 42 3 4 6 -1 6 -10 0 -10 7 -17 15
-17 8 0 15 7 15 15 0 21 28 19 33 -2 4 -14 5 -12 6 5 1 19 -4 22 -36 22 -21 0
-43 4 -50 8 -14 9 -16 112 -1 112 5 0 2 7 -6 16 -9 8 -16 23 -16 33 0 26 -10
32 -32 20 -22 -12 -49 3 -29 15 16 10 14 36 -3 42 -8 3 -25 -3 -37 -14 -13
-13 -28 -18 -38 -14 -13 6 -12 7 5 10 12 2 27 14 35 28 9 17 19 24 31 21 19
-5 25 8 8 18 -5 3 -10 29 -10 56 0 49 0 49 -27 43 -16 -4 -31 -11 -34 -17 -4
-6 -16 -3 -30 7 -13 9 -18 16 -12 16 12 0 46 60 39 68 -11 10 -48 -12 -59 -36
l-11 -27 -4 30 c-4 34 -16 45 -53 45 -14 0 -34 6 -44 14 -17 12 -18 17 -6 39
13 25 9 47 -10 47 -5 0 -9 -6 -9 -14 0 -7 -9 -16 -19 -19 -17 -4 -18 -2 -8 13
12 20 -5 67 -30 83 -7 4 -13 17 -13 28 0 16 -5 18 -25 13 -19 -5 -25 -2 -25
11 0 10 -5 13 -12 9 -17 -11 -68 -13 -68 -3 0 5 -7 9 -16 9 -14 0 -14 3 -4 15
20 24 -23 65 -69 65 -34 1 -35 2 -17 15 16 12 21 12 28 2 5 -9 11 -8 24 5 14
14 15 20 4 33 -7 8 -20 14 -29 13 -11 -2 -15 3 -13 18 2 12 -4 24 -13 27 -8 4
-15 16 -15 27 0 11 -7 20 -15 20 -19 0 -20 -29 -1 -36 8 -3 12 -12 9 -19 -4
-12 -9 -12 -29 2 -26 16 -32 48 -11 56 6 3 -7 13 -30 23 -26 12 -43 26 -43 36
0 9 -9 18 -21 20 -12 2 -27 12 -33 23 -6 11 -20 28 -30 37 -19 18 -19 18 2 18
12 0 22 -4 22 -10 0 -5 7 -10 15 -10 8 0 15 5 15 10 0 6 -6 10 -13 10 -7 0
-30 9 -52 20 -22 11 -45 20 -52 20 -7 0 -13 7 -13 15 0 11 5 12 26 5 34 -13
37 -13 30 5 -3 10 1 15 12 16 13 0 11 3 -5 9 -13 5 -23 14 -23 20 0 6 -13 18
-29 28 -24 14 -26 19 -15 30 8 7 14 23 13 35 -1 22 -1 22 -7 -1 -10 -35 -27
-31 -30 5 -3 25 -9 34 -28 39 -13 3 -24 12 -24 20 0 8 -4 14 -10 14 -14 0 -12
27 3 34 6 4 2 4 -10 2 -16 -3 -23 2 -25 18 -2 16 -9 21 -31 19 -18 -1 -27 3
-27 13 0 8 5 14 10 14 6 0 10 9 10 20 0 11 4 20 10 20 13 0 50 37 50 50 0 6
-7 10 -15 10 -8 0 -15 3 -15 8 -2 20 -29 105 -29 90 -1 -9 -7 -19 -13 -21 -10
-4 -10 -6 0 -6 6 -1 12 -8 12 -16 0 -8 -4 -14 -9 -13 -5 2 -9 -1 -9 -7 -1 -5
5 -9 12 -7 17 3 29 -39 16 -52 -7 -7 -10 -4 -10 6 0 19 -30 31 -53 22 -10 -3
-20 2 -26 15 -13 23 -14 34 -3 27 6 -3 8 88 3 125 -1 4 -9 9 -20 12 -10 2 -20
16 -23 31 -4 22 -2 26 18 26 21 0 24 5 24 39 0 37 -1 39 -40 45 -26 4 -40 11
-40 21 0 8 7 15 15 15 21 0 19 27 -2 34 -10 3 3 4 29 2 26 -2 45 0 42 5 -3 5
-27 9 -55 9 -27 0 -49 3 -49 6 0 16 33 34 67 35 35 1 35 2 -12 9 -89 13 -95
17 -95 61 0 21 -4 39 -10 39 -7 0 -10 -580 -10 -1720z m80 1470 c0 -5 -2 -10
-4 -10 -3 0 -8 5 -11 10 -3 6 -1 10 4 10 6 0 11 -4 11 -10z m80 -220 c0 -5 -4
-10 -10 -10 -5 0 -10 5 -10 10 0 6 5 10 10 10 6 0 10 -4 10 -10z m121 -317
c-12 -8 -21 -21 -21 -30 0 -14 4 -13 20 5 23 25 28 26 50 12 12 -7 12 -12 2
-22 -9 -9 -12 -9 -12 5 0 31 -16 18 -31 -25 -11 -29 -22 -43 -34 -43 -10 0
-19 6 -21 13 -1 7 0 8 3 2 8 -17 23 -11 23 10 0 11 -4 20 -9 20 -20 0 -23 41
-5 61 10 11 12 19 6 19 -7 0 -12 4 -12 9 0 5 14 3 31 -6 30 -15 30 -15 10 -30z
m45 -90 c-10 -10 -19 5 -10 18 6 11 8 11 12 0 2 -7 1 -15 -2 -18z m-6 -33 c0
-5 -4 -10 -9 -10 -6 0 -13 5 -16 10 -3 6 1 10 9 10 9 0 16 -4 16 -10z m103
-47 c-7 -2 -21 -2 -30 0 -10 3 -4 5 12 5 17 0 24 -2 18 -5z m-96 -35 c-3 -8
-6 -5 -6 6 -1 11 2 17 5 13 3 -3 4 -12 1 -19z m28 -18 c3 -5 1 -10 -4 -10 -6
0 -11 5 -11 10 0 6 2 10 4 10 3 0 8 -4 11 -10z m45 -20 c0 -5 -5 -10 -11 -10
-5 0 -7 5 -4 10 3 6 8 10 11 10 2 0 4 -4 4 -10z m80 -120 c0 -5 -4 -10 -10
-10 -5 0 -10 5 -10 10 0 6 5 10 10 10 6 0 10 -4 10 -10z m187 -206 c-3 -3 -12
-4 -19 -1 -8 3 -5 6 6 6 11 1 17 -2 13 -5z m49 -61 c-3 -3 -13 -2 -23 2 -17 7
-17 8 2 15 19 7 34 -5 21 -17z m244 -143 c0 -5 -4 -10 -10 -10 -5 0 -10 5 -10
10 0 6 5 10 10 10 6 0 10 -4 10 -10z m110 -160 c0 -24 5 -40 12 -40 6 0 9 -2
7 -5 -3 -2 -15 -2 -27 2 -18 4 -22 13 -22 44 0 28 4 39 15 39 11 0 15 -11 15
-40z m130 -96 c0 -8 -4 -12 -10 -9 -5 3 -10 10 -10 16 0 5 5 9 10 9 6 0 10 -7
10 -16z m22 -49 c-5 -31 -13 -37 -32 -24 -13 8 -11 13 9 29 29 25 29 25 23 -5z
m138 -385 c0 -5 -2 -10 -4 -10 -3 0 -8 5 -11 10 -3 6 -1 10 4 10 6 0 11 -4 11
-10z m-60 -190 c0 -5 -4 -10 -10 -10 -5 0 -10 5 -10 10 0 6 5 10 10 10 6 0 10
-4 10 -10z"/>
<path d="M6195 3290 c4 -6 11 -8 16 -5 14 9 11 15 -7 15 -8 0 -12 -5 -9 -10z"/>
<path d="M150 3230 c-13 -8 -12 -10 3 -10 9 0 17 5 17 10 0 12 -1 12 -20 0z"/>
<path d="M6330 3150 c0 -5 9 -10 20 -10 11 0 20 5 20 10 0 6 -9 10 -20 10 -11
0 -20 -4 -20 -10z"/>
<path d="M311 3024 c0 -11 3 -14 6 -6 3 7 2 16 -1 19 -3 4 -6 -2 -5 -13z"/>
<path d="M378 2713 c7 -3 16 -2 19 1 4 3 -2 6 -13 5 -11 0 -14 -3 -6 -6z"/>
<path d="M4018 2473 c7 -3 16 -2 19 1 4 3 -2 6 -13 5 -11 0 -14 -3 -6 -6z"/>
<path d="M665 2360 c3 -5 8 -10 11 -10 2 0 4 5 4 10 0 6 -5 10 -11 10 -5 0 -7
-4 -4 -10z"/>
<path d="M551 2344 c0 -11 3 -14 6 -6 3 7 2 16 -1 19 -3 4 -6 -2 -5 -13z"/>
<path d="M640 2280 c0 -5 5 -10 11 -10 5 0 7 5 4 10 -3 6 -8 10 -11 10 -2 0
-4 -4 -4 -10z"/>
<path d="M768 2163 c6 -2 18 -2 25 0 6 3 1 5 -13 5 -14 0 -19 -2 -12 -5z"/>
<path d="M858 2073 c7 -3 16 -2 19 1 4 3 -2 6 -13 5 -11 0 -14 -3 -6 -6z"/>
<path d="M800 2015 c0 -9 5 -15 11 -13 6 2 11 8 11 13 0 5 -5 11 -11 13 -6 2
-11 -4 -11 -13z"/>
<path d="M1040 1838 c0 -11 57 -10 64 1 3 5 -10 9 -29 8 -19 -1 -35 -5 -35 -9z"/>
<path d="M1131 1811 c-21 -14 -5 -43 21 -39 15 2 23 10 23 23 0 22 -22 30 -44
16z"/>
<path d="M1040 1800 c0 -5 14 -10 30 -10 17 0 30 5 30 10 0 6 -13 10 -30 10
-16 0 -30 -4 -30 -10z"/>
<path d="M1361 1554 c0 -11 3 -14 6 -6 3 7 2 16 -1 19 -3 4 -6 -2 -5 -13z"/>
<path d="M1376 1405 c2 -60 18 -62 22 -2 2 33 -1 47 -10 47 -9 0 -13 -14 -12
-45z"/>
<path d="M1468 1403 c7 -3 16 -2 19 1 4 3 -2 6 -13 5 -11 0 -14 -3 -6 -6z"/>
<path d="M1453 1363 c9 -2 23 -2 30 0 6 3 -1 5 -18 5 -16 0 -22 -2 -12 -5z"/>
<path d="M1544 1320 c0 -11 3 -20 7 -20 4 0 9 9 12 20 3 12 0 20 -7 20 -6 0
-12 -9 -12 -20z"/>
<path d="M1380 1320 c0 -6 11 -8 28 -4 39 10 40 14 4 14 -18 0 -32 -5 -32 -10z"/>
<path d="M1490 1290 c-12 -8 -11 -10 8 -10 12 0 22 5 22 10 0 13 -11 13 -30 0z"/>
<path d="M1456 1255 c-7 -19 3 -47 15 -39 5 3 9 14 9 24 0 24 -16 34 -24 15z"/>
<path d="M1350 1000 c0 -5 5 -10 11 -10 5 0 7 5 4 10 -3 6 -8 10 -11 10 -2 0
-4 -4 -4 -10z"/>
<path d="M1280 920 c0 -14 37 -31 55 -24 14 6 14 8 -2 20 -21 16 -53 18 -53 4z"/>
<path d="M1280 700 c0 -5 7 -10 15 -10 8 0 15 5 15 10 0 6 -7 10 -15 10 -8 0
-15 -4 -15 -10z"/>
<path d="M13850 133 c-1 -16 -7 -44 -14 -64 -14 -39 -6 -69 19 -69 24 0 27 19
6 36 -18 16 -19 50 0 38 5 -3 9 15 9 40 0 25 -4 46 -10 46 -5 0 -10 -12 -10
-27z"/>
<path d="M1210 80 c-8 -5 -10 -10 -5 -10 6 0 17 5 25 10 8 5 11 10 5 10 -5 0
-17 -5 -25 -10z"/>
</g>
</svg>
